{
  "asset": {
    "version": "2.0",
    "generator": "THREE.GLTFExporter r178"
  },
  "scenes": [
    {
      "name": "Scene",
      "nodes": [
        0
      ]
    }
  ],
  "scene": 0,
  "nodes": [
    {
      "extras": {
        "unitScaleFactor": 1
      },
      "children": [
        1,
        2,
        3
      ]
    },
    {
      "matrix": [
        -29.0864773643797,
        -5.518905590722296,
        -95.51711910171439,
        0,
        56.63932069164075,
        79.46722539115298,
        -21.839126361216156,
        0,
        77.1100792063773,
        -60.45247533691201,
        -19.988344364310564,
        0,
        407.6245422363281,
        590.38623046875,
        -100.54539489746094,
        1
      ],
      "name": "Light",
      "extras": {
        "originalName": "Light",
        "transformData": {
          "inheritType": 1,
          "eulerOrder": "ZYX",
          "translation": [
            407.6245422363281,
            590.38623046875,
            -100.54539489746094
          ],
          "rotation": [
            47.533571132396105,
            107.22076721353456,
            10.743659606866508
          ],
          "scale": [
            100.00000762939453,
            100,
            100
          ],
          "parentMatrix": {
            "elements": [
              1,
              0,
              0,
              0,
              0,
              1,
              0,
              0,
              0,
              0,
              1,
              0,
              0,
              0,
              0,
              1
            ]
          },
          "parentMatrixWorld": {
            "elements": [
              1,
              0,
              0,
              0,
              0,
              1,
              0,
              0,
              0,
              0,
              1,
              0,
              0,
              0,
              0,
              1
            ]
          }
        }
      },
      "extensions": {
        "KHR_lights_punctual": {
          "light": 0
        }
      }
    },
    {
      "matrix": [
        -65.1558127516791,
        -44.52713915455176,
        -61.417049289096546,
        0,
        -32.401349332924404,
        89.53957282709821,
        -30.542085476036895,
        0,
        68.59207001076243,
        0.00000866690883440326,
        -72.76761921184276,
        0,
        735.88916015625,
        495.8309326171875,
        692.5791015625,
        1
      ],
      "name": "Camera",
      "extras": {
        "originalName": "Camera",
        "transformData": {
          "inheritType": 1,
          "eulerOrder": "ZYX",
          "translation": [
            735.88916015625,
            495.8309326171875,
            692.5791015625
          ],
          "rotation": [
            22.768804428452686,
            142.10832847501666,
            34.34849541142803
          ],
          "scale": [
            100,
            100.00000762939453,
            99.99999237060547
          ],
          "parentMatrix": {
            "elements": [
              1,
              0,
              0,
              0,
              0,
              1,
              0,
              0,
              0,
              0,
              1,
              0,
              0,
              0,
              0,
              1
            ]
          },
          "parentMatrixWorld": {
            "elements": [
              1,
              0,
              0,
              0,
              0,
              1,
              0,
              0,
              0,
              0,
              1,
              0,
              0,
              0,
              0,
              1
            ]
          }
        }
      },
      "camera": 0
    },
    {
      "matrix": [
        7.8589982986450195,
        0,
        0,
        0,
        0,
        -0.0000022172589476618133,
        -7.858998298644707,
        0,
        0,
        7.8589925765988085,
        -0.0000022172573333011804,
        0,
        0.02849688194692135,
        0,
        0.16613900661468506,
        1
      ],
      "name": "Sphere002",
      "extras": {
        "originalName": "Sphere.002",
        "transformData": {
          "inheritType": 1,
          "eulerOrder": "ZYX",
          "translation": [
            0.02849688194692135,
            0,
            0.16613900661468506
          ],
          "rotation": [
            -90.0000161648565,
            0,
            0
          ],
          "scale": [
            7.8589982986450195,
            7.8589982986450195,
            7.858992576599121
          ],
          "parentMatrix": {
            "elements": [
              1,
              0,
              0,
              0,
              0,
              1,
              0,
              0,
              0,
              0,
              1,
              0,
              0,
              0,
              0,
              1
            ]
          },
          "parentMatrixWorld": {
            "elements": [
              1,
              0,
              0,
              0,
              0,
              1,
              0,
              0,
              0,
              0,
              1,
              0,
              0,
              0,
              0,
              1
            ]
          }
        }
      },
      "mesh": 0
    }
  ],
  "extensions": {
    "KHR_lights_punctual": {
      "lights": [
        {
          "name": "Light",
          "color": [
            1,
            1,
            1
          ],
          "intensity": 1000,
          "type": "point"
        }
      ]
    }
  },
  "cameras": [
    {
      "type": "perspective",
      "perspective": {
        "aspectRatio": 1.4330874604847208,
        "yfov": 0.388777908714959,
        "zfar": 10,
        "znear": 0.010000000149011612
      },
      "name": "PerspectiveCamera"
    }
  ],
  "bufferViews": [
    {
      "buffer": 0,
      "byteOffset": 0,
      "byteLength": 741888,
      "target": 34962,
      "byteStride": 12
    },
    {
      "buffer": 0,
      "byteOffset": 741888,
      "byteLength": 741888,
      "target": 34962,
      "byteStride": 12
    },
    {
      "buffer": 0,
      "byteOffset": 1483776,
      "byteLength": 494592,
      "target": 34962,
      "byteStride": 8
    }
  ],
  "buffers": [
    {
      "byteLength": 1978368,
      "uri": "data:application/octet-stream;base64,"
    }
  ],
  "accessors": [
    {
      "bufferView": 0,
      "componentType": 5126,
      "count": 61824,
      "max": [
        1.462965726852417,
        1.4557182788848877,
        5.058269023895264
      ],
      "min": [
        -1.462965726852417,
        -1.4557174444198608,
        -0.005998915061354637
      ],
      "type": "VEC3"
    },
    {
      "bufferView": 1,
      "componentType": 5126,
      "count": 61824,
      "max": [
        1,
        1,
        1
      ],
      "min": [
        -1,
        -1,
        -1
      ],
      "type": "VEC3"
    },
    {
      "bufferView": 2,
      "componentType": 5126,
      "count": 61824,
      "max": [
        1.0000001192092896,
        1.0000001192092896
      ],
      "min": [
        0,
        0.12419155240058899
      ],
      "type": "VEC2"
    }
  ],
  "materials": [
    {
      "pbrMetallicRoughness": {
        "metallicFactor": 0,
        "roughnessFactor": 1
      },
      "name": "Material.001"
    }
  ],
  "meshes": [
    {
      "primitives": [
        {
          "mode": 4,
          "attributes": {
            "POSITION": 0,
            "NORMAL": 1,
            "TEXCOORD_0": 2
          },
          "material": 0
        }
      ]
    }
  ],
  "extensionsUsed": [
    "KHR_lights_punctual"
  ]
}