{
  "asset": {
    "version": "2.0",
    "generator": "THREE.GLTFExporter r177"
  },
  "scenes": [
    {
      "name": "Scene",
      "nodes": [
        0
      ]
    }
  ],
  "scene": 0,
  "nodes": [
    {
      "name": "Chess_Piece.glb",
      "children": [
        1,
        6,
        7
      ]
    },
    {
      "matrix": [
        1,
        0,
        0,
        0,
        0,
        -3.029462689596585e-7,
        -0.9999999657714298,
        0,
        0,
        0.9999999657714298,
        -3.029462689596585e-7,
        0,
        0,
        0,
        0,
        1
      ],
      "name": "Sketchfab_model",
      "extras": {
        "name": "Sketchfab_model"
      },
      "children": [
        2
      ]
    },
    {
      "matrix": [
        0.009999999776482582,
        0,
        0,
        0,
        0,
        -3.029462904023516e-9,
        0.010000000365519431,
        0,
        0,
        -0.010000000365519431,
        -3.029462904023516e-9,
        0,
        0,
        0,
        0,
        1
      ],
      "name": "62be0954571b4d8782d11c41855cc28efbx",
      "extras": {
        "name": "62be0954571b4d8782d11c41855cc28e.fbx"
      },
      "children": [
        3
      ]
    },
    {
      "name": "RootNode",
      "extras": {
        "name": "RootNode"
      },
      "children": [
        4
      ]
    },
    {
      "matrix": [
        100,
        0,
        0,
        0,
        0,
        -0.00003029462458466924,
        -99.9999889477487,
        0,
        0,
        99.9999889477487,
        -0.00003029462458466924,
        0,
        -0.6708502769470215,
        18.595182418823242,
        -0.0005277980235405266,
        1
      ],
      "name": "Sphere004",
      "extras": {
        "name": "Sphere.004"
      },
      "children": [
        5
      ]
    },
    {
      "matrix": [
        1,
        0,
        0,
        0,
        0,
        1,
        0,
        0,
        0,
        0,
        1,
        0,
        6.666638374328613,
        0.08026318997144699,
        -0.028398847207427025,
        1
      ],
      "name": "Sphere004_White_0",
      "extras": {
        "name": "Sphere.004_White_0"
      },
      "mesh": 0
    },
    {
      "matrix": [
        -0.29086462589180684,
        -0.05518903353397775,
        -0.9551711964083935,
        0,
        -0.7711009137257037,
        0.6045246461343226,
        0.19988335568841364,
        0,
        0.566393171500188,
        0.7946723511029319,
        -0.21839116272315806,
        0,
        4.076245307922363,
        5.903861999511719,
        -1.0054539442062378,
        1
      ],
      "name": "Light",
      "extras": {
        "name": "Light"
      },
      "extensions": {
        "KHR_lights_punctual": {
          "light": 0
        }
      }
    },
    {
      "matrix": [
        0.6859206347797677,
        -1.9112529336950956e-8,
        -0.7276763573390443,
        0,
        -0.32401346065627035,
        0.8953956546680355,
        -0.305420854447231,
        0,
        0.6515582539909754,
        0.4452714015268988,
        0.6141703497279187,
        0,
        7.358891487121582,
        6.032668113708496,
        6.925790786743164,
        1
      ],
      "name": "Camera",
      "extras": {
        "name": "Camera"
      },
      "camera": 0
    }
  ],
  "bufferViews": [
    {
      "buffer": 0,
      "byteOffset": 0,
      "byteLength": 222672,
      "target": 34962,
      "byteStride": 12
    },
    {
      "buffer": 0,
      "byteOffset": 222672,
      "byteLength": 222672,
      "target": 34962,
      "byteStride": 12
    },
    {
      "buffer": 0,
      "byteOffset": 445344,
      "byteLength": 222528,
      "target": 34963
    }
  ],
  "buffers": [
    {
      "byteLength": 667872,
      "uri": "data:application/octet-stream;base64,"
    }
  ],
  "accessors": [
    {
      "bufferView": 0,
      "componentType": 5126,
      "count": 18556,
      "max": [
        -6.1541337966918945,
        0.656237781047821,
        2.922795295715332
      ],
      "min": [
        -7.466622829437256,
        -0.6562504768371582,
        -0.22162723541259766
      ],
      "type": "VEC3"
    },
    {
      "bufferView": 1,
      "componentType": 5126,
      "count": 18556,
      "max": [
        1,
        1,
        1
      ],
      "min": [
        -1,
        -1,
        -1
      ],
      "type": "VEC3"
    },
    {
      "bufferView": 2,
      "componentType": 5123,
      "count": 111264,
      "max": [
        18555
      ],
      "min": [
        0
      ],
      "type": "SCALAR"
    }
  ],
  "materials": [
    {
      "pbrMetallicRoughness": {
        "baseColorFactor": [
          0.019382361322641373,
          0.019382361322641373,
          0.026241222396492958,
          1
        ],
        "metallicFactor": 0.49828723073005676,
        "roughnessFactor": 0.3066645562648773
      },
      "doubleSided": true,
      "name": "White"
    }
  ],
  "meshes": [
    {
      "primitives": [
        {
          "mode": 4,
          "attributes": {
            "POSITION": 0,
            "NORMAL": 1
          },
          "indices": 2,
          "material": 0
        }
      ]
    }
  ],
  "extensions": {
    "KHR_lights_punctual": {
      "lights": [
        {
          "name": "Light",
          "color": [
            1,
            1,
            1
          ],
          "intensity": 200,
          "type": "point"
        }
      ]
    }
  },
  "cameras": [
    {
      "type": "perspective",
      "perspective": {
        "aspectRatio": 1.4330874604847208,
        "yfov": 0.39959648408210363,
        "zfar": 100,
        "znear": 0.10000000149011612
      },
      "name": "PerspectiveCamera"
    }
  ],
  "extensionsUsed": [
    "KHR_lights_punctual"
  ]
}