{
	"asset":{
		"generator":"Khronos glTF Blender I/O v4.4.56",
		"version":"2.0"
	},
	"scene":0,
	"scenes":[
		{
			"name":"Scene",
			"nodes":[
				5
			]
		}
	],
	"nodes":[
		{
			"mesh":0,
			"name":"Object_6",
			"scale":[
				16.666667938232422,
				16.494842529296875,
				16.666662216186523
			],
			"translation":[
				-0.017503200098872185,
				0,
				0
			]
		},
		{
			"children":[
				0
			],
			"name":"Pawn.001_1",
			"translation":[
				0.01707196980714798,
				0,
				0
			]
		},
		{
			"name":"Pawn_0",
			"translation":[
				-0.016695382073521614,
				0,
				0
			]
		},
		{
			"children":[
				1,
				2
			],
			"name":"GLTF_SceneRootNode",
			"rotation":[
				0.70710688829422,
				0,
				0,
				0.7071066498756409
			]
		},
		{
			"children":[
				3
			],
			"name":"root"
		},
		{
			"children":[
				4
			],
			"name":"Sketchfab_model",
			"rotation":[
				-0.70710688829422,
				0,
				0,
				0.7071066498756409
			]
		}
	],
	"materials":[
		{
			"doubleSided":true,
			"name":"White_Square",
			"pbrMetallicRoughness":{
				"baseColorFactor":[
					0.8829370141029358,
					1,
					1,
					1
				],
				"metallicFactor":0.6499999761581421,
				"roughnessFactor":0.15000000596046448
			}
		}
	],
	"meshes":[
		{
			"name":"Object_1",
			"primitives":[
				{
					"attributes":{
						"POSITION":0,
						"NORMAL":1,
						"TEXCOORD_0":2
					},
					"indices":3,
					"material":0
				}
			]
		}
	],
	"accessors":[
		{
			"bufferView":0,
			"componentType":5126,
			"count":1522,
			"max":[
				0.014999999664723873,
				0.048499997705221176,
				0.014999999664723873
			],
			"min":[
				-0.014999999664723873,
				0,
				-0.014999999664723873
			],
			"type":"VEC3"
		},
		{
			"bufferView":1,
			"componentType":5126,
			"count":1522,
			"type":"VEC3"
		},
		{
			"bufferView":2,
			"componentType":5126,
			"count":1522,
			"type":"VEC2"
		},
		{
			"bufferView":3,
			"componentType":5123,
			"count":2250,
			"type":"SCALAR"
		}
	],
	"bufferViews":[
		{
			"buffer":0,
			"byteLength":18264,
			"byteOffset":0,
			"target":34962
		},
		{
			"buffer":0,
			"byteLength":18264,
			"byteOffset":18264,
			"target":34962
		},
		{
			"buffer":0,
			"byteLength":12176,
			"byteOffset":36528,
			"target":34962
		},
		{
			"buffer":0,
			"byteLength":4500,
			"byteOffset":48704,
			"target":34963
		}
	],
	"buffers":[
		{
			"byteLength":53204,
			"uri":"pawn.bin"
		}
	]
}
