<svg width="42" height="42" viewBox="0 0 42 42" fill="none" xmlns="http://www.w3.org/2000/svg">
<path d="M11.0632 12.375C11.0632 13.1209 11.3595 13.8363 11.887 14.3637C12.4144 14.8912 13.1298 15.1875 13.8757 15.1875C14.6217 15.1875 15.337 14.8912 15.8645 14.3637C16.3919 13.8363 16.6882 13.1209 16.6882 12.375C16.6882 11.6291 16.3919 10.9137 15.8645 10.3863C15.337 9.85882 14.6217 9.5625 13.8757 9.5625C13.1298 9.5625 12.4144 9.85882 11.887 10.3863C11.3595 10.9137 11.0632 11.6291 11.0632 12.375ZM36.9382 0H5.06323C4.23354 0 3.56323 0.670312 3.56323 1.5V32.4375C3.56323 33.2672 4.23354 33.9375 5.06323 33.9375H36.9382C37.7679 33.9375 38.4382 33.2672 38.4382 32.4375V1.5C38.4382 0.670312 37.7679 0 36.9382 0ZM35.4382 30.9375H6.56323V3H35.4382V30.9375ZM25.3132 12.375C25.3132 13.1209 25.6095 13.8363 26.137 14.3637C26.6644 14.8912 27.3798 15.1875 28.1257 15.1875C28.8717 15.1875 29.587 14.8912 30.1145 14.3637C30.6419 13.8363 30.9382 13.1209 30.9382 12.375C30.9382 11.6291 30.6419 10.9137 30.1145 10.3863C29.587 9.85882 28.8717 9.5625 28.1257 9.5625C27.3798 9.5625 26.6644 9.85882 26.137 10.3863C25.6095 10.9137 25.3132 11.6291 25.3132 12.375ZM37.0414 38.4375H4.96011C4.18667 38.4375 3.56323 39.1078 3.56323 39.9375V41.625C3.56323 41.8312 3.71792 42 3.91011 42H38.0867C38.2789 42 38.4335 41.8312 38.4335 41.625V39.9375C38.4382 39.1078 37.8148 38.4375 37.0414 38.4375ZM28.1257 20.8125H13.8757C13.6695 20.8125 13.5007 20.9813 13.5007 21.1875V24C13.5007 24.2062 13.6695 24.375 13.8757 24.375H28.1257C28.332 24.375 28.5007 24.2062 28.5007 24V21.1875C28.5007 20.9813 28.332 20.8125 28.1257 20.8125Z" fill="#D9D9D9"/>
</svg>
